<svg id="Layer_1" data-name="Layer 1" xmlns="http://www.w3.org/2000/svg" viewBox="0 0 24 15.4"><title>check2</title><g id="icon"><path fill="#ffffff" d="M23.7,6.3,22,4.6a1,1,0,0,0-1.4,0l-9.3,9.3L7.6,10.2a1,1,0,0,0-1.4,0L4.5,11.9a1,1,0,0,0,0,1.4l6,6a1.22,1.22,0,0,0,1.6,0L23.7,7.8A1.09,1.09,0,0,0,23.7,6.3Z" transform="translate(0 -4.3)"/><path fill="#ffffff" d="M6.3,19.4a1.22,1.22,0,0,0,1.6,0,.49.49,0,1,0-.7-.7c-.1.1-.2.1-.2,0L1,12.6l1.7-1.7h0a.49.49,0,1,0,.7-.7,1,1,0,0,0-1.4,0L.3,11.9a1,1,0,0,0,0,1.4Z" transform="translate(0 -4.3)"/><path fill="#ffffff"  d="M10.7,11.8l6.5-6.5h0a.49.49,0,0,0,.7-.7,1,1,0,0,0-1.4,0L10,11.1a.48.48,0,0,0,0,.7c.1.1.2.1.4.1S10.6,11.9,10.7,11.8Z" transform="translate(0 -4.3)"/></g></svg>